<?xml version="1.0" encoding="UTF-8"?>
<svg id="Layer_2" data-name="Layer 2" xmlns="http://www.w3.org/2000/svg" viewBox="0 0 1000 1000">
  <defs>
    <style>
      .cls-1 {
        fill: #fff;
      }

      .cls-2 {
        font-family: NirmalaUI-Bold, 'Nirmala UI';
        font-size: 84.92px;
        font-weight: 700;
      }

      .cls-2, .cls-3 {
        fill: #1e2939;
      }

      .cls-4 {
        fill: #ff6900;
      }

      .cls-5 {
        fill: #fefefe;
      }
    </style>
  </defs>
  <g id="Layer_1-2" data-name="Layer 1">
    <circle class="cls-5" cx="500" cy="500" r="500"/>
    <path class="cls-4" d="m150.74,351.17v297.66c0,31.39,16.82,60.38,44.08,75.96l261.78,149.6c26.9,15.37,59.92,15.37,86.81,0l261.78-149.6c27.26-15.58,44.08-44.56,44.08-75.96v-297.66c0-31.39-16.82-60.38-44.08-75.96l-261.78-149.6c-26.9-15.37-59.92-15.37-86.81,0l-261.78,149.6c-27.26,15.58-44.08,44.56-44.08,75.96Z"/>
    <path class="cls-5" d="m212.87,377.65v244.7c0,25.81,13.83,49.64,36.24,62.44l215.21,122.99c22.11,12.64,49.26,12.64,71.37,0l215.21-122.99c22.41-12.81,36.24-36.64,36.24-62.44v-244.7c0-25.81-13.83-49.64-36.24-62.44l-215.21-122.99c-22.11-12.64-49.26-12.64-71.37,0l-215.21,122.99c-22.41,12.81-36.24,36.64-36.24,62.44Z"/>
    <polygon class="cls-3" points="512.71 478.47 501.94 497.12 490.2 476.79 500 471.13 512.71 478.47"/>
    <polygon class="cls-3" points="475 507 496.24 507 487.71 521.77 475 514.43 475 507"/>
    <polygon class="cls-3" points="501.94 497.12 507.64 507 496.24 507 501.94 497.12"/>
    <polygon class="cls-3" points="525 507 525 514.43 515.2 520.09 507.64 507 525 507"/>
    <g>
      <path class="cls-3" d="m691.39,357.03l-191.39,110.49-191.39-110.49,163.89-93.65c17.04-9.74,37.97-9.74,55.01,0l163.89,93.65Z"/>
      <path class="cls-3" d="m278.65,405.98l192.66,111.22v220.04l-164.74-94.14c-17.27-9.87-27.93-28.24-27.93-48.14v-188.64c0-.11,0-.23.01-.34Z"/>
      <path class="cls-3" d="m721.36,406.33v188.64c0,19.9-10.66,38.27-27.93,48.14l-164.74,94.14v-220.04l192.66-111.22c.01.11.01.23.01.34Z"/>
      <circle class="cls-5" cx="500" cy="500.65" r="119.35"/>
      <g>
        <g>
          <circle class="cls-4" cx="500" cy="500.65" r="90.37"/>
          <rect class="cls-4" x="488.52" y="566.06" width="22.95" height="177.88" rx="11.48" ry="11.48"/>
        </g>
        <circle class="cls-1" cx="500" cy="500.65" r="68.85"/>
      </g>
      <text class="cls-2" transform="translate(461.48 521.34)"><tspan x="0" y="0">род</tspan></text>
    </g>
  </g>
</svg>