<?xml version="1.0" encoding="UTF-8"?>
<svg id="Layer_2" data-name="Layer 2" xmlns="http://www.w3.org/2000/svg" viewBox="0 0 136 136">
  <defs>
    <style>
      .cls-1 {
        fill: #fff;
      }

      .cls-2 {
        fill: #ff6900;
      }

      .cls-3 {
        font-family: NirmalaUI-Bold, 'Nirmala UI';
        font-size: 11.55px;
        font-weight: 700;
      }

      .cls-3, .cls-4 {
        fill: #1e2939;
      }

      .cls-5 {
        fill: #fefefe;
      }
    </style>
  </defs>
  <g id="Layer_1-2" data-name="Layer 1">
    <g>
      <rect class="cls-5" width="136" height="136"/>
      <path class="cls-2" d="m20.5,47.76v40.48c0,4.27,2.29,8.21,5.99,10.33l35.6,20.35c3.66,2.09,8.15,2.09,11.81,0l35.6-20.35c3.71-2.12,5.99-6.06,5.99-10.33v-40.48c0-4.27-2.29-8.21-5.99-10.33l-35.6-20.35c-3.66-2.09-8.15-2.09-11.81,0l-35.6,20.35c-3.71,2.12-5.99,6.06-5.99,10.33Z"/>
      <path class="cls-5" d="m28.95,51.36v33.28c0,3.51,1.88,6.75,4.93,8.49l29.27,16.73c3.01,1.72,6.7,1.72,9.71,0l29.27-16.73c3.05-1.74,4.93-4.98,4.93-8.49v-33.28c0-3.51-1.88-6.75-4.93-8.49l-29.27-16.73c-3.01-1.72-6.7-1.72-9.71,0l-29.27,16.73c-3.05,1.74-4.93,4.98-4.93,8.49Z"/>
      <polygon class="cls-4" points="69.73 65.07 68.26 67.61 66.67 64.84 68 64.07 69.73 65.07"/>
      <polygon class="cls-4" points="64.6 68.95 67.49 68.95 66.33 70.96 64.6 69.96 64.6 68.95"/>
      <polygon class="cls-4" points="68.26 67.61 69.04 68.95 67.49 68.95 68.26 67.61"/>
      <polygon class="cls-4" points="71.4 68.95 71.4 69.96 70.07 70.73 69.04 68.95 71.4 68.95"/>
      <g>
        <path class="cls-4" d="m94.03,48.56l-26.03,15.03-26.03-15.03,22.29-12.74c2.32-1.33,5.16-1.33,7.48,0l22.29,12.74Z"/>
        <path class="cls-4" d="m37.9,55.21l26.2,15.13v29.93l-22.4-12.8c-2.35-1.34-3.8-3.84-3.8-6.55v-25.65s0-.03,0-.05Z"/>
        <path class="cls-4" d="m98.1,55.26v25.65c0,2.71-1.45,5.2-3.8,6.55l-22.4,12.8v-29.93l26.2-15.13s0,.03,0,.05Z"/>
        <circle class="cls-5" cx="68" cy="68.09" r="16.23"/>
        <g>
          <g>
            <circle class="cls-2" cx="68" cy="68.09" r="12.29"/>
            <rect class="cls-2" x="66.44" y="76.98" width="3.12" height="24.19" rx="1.56" ry="1.56"/>
          </g>
          <circle class="cls-1" cx="68" cy="68.09" r="9.36"/>
        </g>
        <text class="cls-3" transform="translate(62.76 70.9)"><tspan x="0" y="0">род</tspan></text>
      </g>
    </g>
  </g>
</svg>