<?xml version="1.0" encoding="UTF-8"?>
<svg id="Layer_2" data-name="Layer 2" xmlns="http://www.w3.org/2000/svg" viewBox="0 0 180 180">
  <defs>
    <style>
      .cls-1 {
        fill: #fff;
      }

      .cls-2 {
        font-family: NirmalaUI-Bold, 'Nirmala UI';
        font-size: 15.29px;
        font-weight: 700;
      }

      .cls-2, .cls-3 {
        fill: #1e2939;
      }

      .cls-4 {
        fill: #ff6900;
      }

      .cls-5 {
        fill: #fefefe;
      }
    </style>
  </defs>
  <g id="Layer_1-2" data-name="Layer 1">
    <g>
      <rect class="cls-5" width="180" height="180"/>
      <path class="cls-4" d="m27.13,63.21v53.58c0,5.65,3.03,10.87,7.93,13.67l47.12,26.93c4.84,2.77,10.79,2.77,15.63,0l47.12-26.93c4.91-2.8,7.93-8.02,7.93-13.67v-53.58c0-5.65-3.03-10.87-7.93-13.67l-47.12-26.93c-4.84-2.77-10.79-2.77-15.63,0l-47.12,26.93c-4.91,2.8-7.93,8.02-7.93,13.67Z"/>
      <path class="cls-5" d="m38.32,67.98v44.05c0,4.65,2.49,8.94,6.52,11.24l38.74,22.14c3.98,2.27,8.87,2.27,12.85,0l38.74-22.14c4.03-2.31,6.52-6.59,6.52-11.24v-44.05c0-4.65-2.49-8.94-6.52-11.24l-38.74-22.14c-3.98-2.27-8.87-2.27-12.85,0l-38.74,22.14c-4.03,2.31-6.52,6.59-6.52,11.24Z"/>
      <polygon class="cls-3" points="92.29 86.12 90.35 89.48 88.24 85.82 90 84.8 92.29 86.12"/>
      <polygon class="cls-3" points="85.5 91.26 89.32 91.26 87.79 93.92 85.5 92.6 85.5 91.26"/>
      <polygon class="cls-3" points="90.35 89.48 91.38 91.26 89.32 91.26 90.35 89.48"/>
      <polygon class="cls-3" points="94.5 91.26 94.5 92.6 92.74 93.62 91.38 91.26 94.5 91.26"/>
      <g>
        <path class="cls-3" d="m124.45,64.26l-34.45,19.89-34.45-19.89,29.5-16.86c3.07-1.75,6.84-1.75,9.9,0l29.5,16.86Z"/>
        <path class="cls-3" d="m50.16,73.08l34.68,20.02v39.61l-29.65-16.94c-3.11-1.78-5.03-5.08-5.03-8.67v-33.96s0-.04,0-.06Z"/>
        <path class="cls-3" d="m129.84,73.14v33.96c0,3.58-1.92,6.89-5.03,8.67l-29.65,16.94v-39.61l34.68-20.02s0,.04,0,.06Z"/>
        <circle class="cls-5" cx="90" cy="90.12" r="21.48"/>
        <g>
          <g>
            <circle class="cls-4" cx="90" cy="90.12" r="16.27"/>
            <rect class="cls-4" x="87.93" y="101.89" width="4.13" height="32.02" rx="2.07" ry="2.07"/>
          </g>
          <circle class="cls-1" cx="90" cy="90.12" r="12.39"/>
        </g>
        <text class="cls-2" transform="translate(83.07 93.84)"><tspan x="0" y="0">род</tspan></text>
      </g>
    </g>
  </g>
</svg>