<?xml version="1.0" encoding="UTF-8"?>
<svg id="Layer_2" data-name="Layer 2" xmlns="http://www.w3.org/2000/svg" viewBox="0 0 246 246">
  <defs>
    <style>
      .cls-1 {
        fill: #fff;
      }

      .cls-2 {
        fill: #ff6900;
      }

      .cls-3, .cls-4 {
        fill: #1e2939;
      }

      .cls-4 {
        font-family: NirmalaUI-Bold, 'Nirmala UI';
        font-size: 20.89px;
        font-weight: 700;
      }

      .cls-5 {
        fill: #fefefe;
      }
    </style>
  </defs>
  <g id="Layer_1-2" data-name="Layer 1">
    <g>
      <rect class="cls-5" width="246" height="246"/>
      <path class="cls-2" d="m37.08,86.39v73.22c0,7.72,4.14,14.85,10.84,18.69l64.4,36.8c6.62,3.78,14.74,3.78,21.36,0l64.4-36.8c6.71-3.83,10.84-10.96,10.84-18.69v-73.22c0-7.72-4.14-14.85-10.84-18.69l-64.4-36.8c-6.62-3.78-14.74-3.78-21.36,0l-64.4,36.8c-6.71,3.83-10.84,10.96-10.84,18.69Z"/>
      <path class="cls-5" d="m52.37,92.9v60.2c0,6.35,3.4,12.21,8.91,15.36l52.94,30.25c5.44,3.11,12.12,3.11,17.56,0l52.94-30.25c5.51-3.15,8.91-9.01,8.91-15.36v-60.2c0-6.35-3.4-12.21-8.91-15.36l-52.94-30.25c-5.44-3.11-12.12-3.11-17.56,0l-52.94,30.25c-5.51,3.15-8.91,9.01-8.91,15.36Z"/>
      <polygon class="cls-3" points="126.13 117.7 123.48 122.29 120.59 117.29 123 115.9 126.13 117.7"/>
      <polygon class="cls-3" points="116.85 124.72 122.08 124.72 119.98 128.36 116.85 126.55 116.85 124.72"/>
      <polygon class="cls-3" points="123.48 122.29 124.88 124.72 122.08 124.72 123.48 122.29"/>
      <polygon class="cls-3" points="129.15 124.72 129.15 126.55 126.74 127.94 124.88 124.72 129.15 124.72"/>
      <g>
        <path class="cls-3" d="m170.08,87.83l-47.08,27.18-47.08-27.18,40.32-23.04c4.19-2.4,9.34-2.4,13.53,0l40.32,23.04Z"/>
        <path class="cls-3" d="m68.55,99.87l47.39,27.36v54.13l-40.52-23.16c-4.25-2.43-6.87-6.95-6.87-11.84v-46.41s0-.06,0-.08Z"/>
        <path class="cls-3" d="m177.45,99.96v46.41c0,4.9-2.62,9.41-6.87,11.84l-40.52,23.16v-54.13l47.39-27.36s0,.06,0,.08Z"/>
        <circle class="cls-5" cx="123" cy="123.16" r="29.36"/>
        <g>
          <g>
            <circle class="cls-2" cx="123" cy="123.16" r="22.23"/>
            <rect class="cls-2" x="120.18" y="139.25" width="5.65" height="43.76" rx="2.82" ry="2.82"/>
          </g>
          <circle class="cls-1" cx="123" cy="123.16" r="16.94"/>
        </g>
        <text class="cls-4" transform="translate(113.52 128.25)"><tspan x="0" y="0">род</tspan></text>
      </g>
    </g>
  </g>
</svg>