<?xml version="1.0" encoding="UTF-8"?>
<svg id="Layer_2" data-name="Layer 2" xmlns="http://www.w3.org/2000/svg" viewBox="0 0 376 376">
  <defs>
    <style>
      .cls-1 {
        fill: #fff;
      }

      .cls-2 {
        fill: #ff6900;
      }

      .cls-3 {
        font-family: NirmalaUI-Bold, 'Nirmala UI';
        font-size: 31.93px;
        font-weight: 700;
      }

      .cls-3, .cls-4 {
        fill: #1e2939;
      }

      .cls-5 {
        fill: #fefefe;
      }
    </style>
  </defs>
  <g id="Layer_1-2" data-name="Layer 1">
    <g>
      <rect class="cls-5" width="376" height="376"/>
      <path class="cls-2" d="m56.68,132.04v111.92c0,11.8,6.33,22.7,16.57,28.56l98.43,56.25c10.11,5.78,22.53,5.78,32.64,0l98.43-56.25c10.25-5.86,16.57-16.76,16.57-28.56v-111.92c0-11.8-6.33-22.7-16.57-28.56l-98.43-56.25c-10.11-5.78-22.53-5.78-32.64,0l-98.43,56.25c-10.25,5.86-16.57,16.76-16.57,28.56Z"/>
      <path class="cls-5" d="m80.04,142v92.01c0,9.7,5.2,18.66,13.63,23.48l80.92,46.24c8.31,4.75,18.52,4.75,26.84,0l80.92-46.24c8.43-4.81,13.62-13.78,13.62-23.48v-92.01c0-9.7-5.2-18.66-13.63-23.48l-80.92-46.24c-8.31-4.75-18.52-4.75-26.84,0l-80.92,46.24c-8.43,4.81-13.62,13.78-13.62,23.48Z"/>
      <polygon class="cls-4" points="192.78 179.9 188.73 186.92 184.32 179.27 188 177.14 192.78 179.9"/>
      <polygon class="cls-4" points="178.6 190.63 186.59 190.63 183.38 196.19 178.6 193.43 178.6 190.63"/>
      <polygon class="cls-4" points="188.73 186.92 190.87 190.63 186.59 190.63 188.73 186.92"/>
      <polygon class="cls-4" points="197.4 190.63 197.4 193.43 193.72 195.55 190.87 190.63 197.4 190.63"/>
      <g>
        <path class="cls-4" d="m259.96,134.24l-71.96,41.54-71.96-41.54,61.62-35.21c6.41-3.66,14.28-3.66,20.69,0l61.62,35.21Z"/>
        <path class="cls-4" d="m104.77,152.65l72.44,41.82v82.73l-61.94-35.4c-6.49-3.71-10.5-10.62-10.5-18.1v-70.93s0-.09,0-.13Z"/>
        <path class="cls-4" d="m271.23,152.78v70.93c0,7.48-4.01,14.39-10.5,18.1l-61.94,35.4v-82.73l72.44-41.82s0,.09,0,.13Z"/>
        <circle class="cls-5" cx="188" cy="188.24" r="44.88"/>
        <g>
          <g>
            <circle class="cls-2" cx="188" cy="188.24" r="33.98"/>
            <rect class="cls-2" x="183.69" y="212.84" width="8.63" height="66.88" rx="4.31" ry="4.31"/>
          </g>
          <circle class="cls-1" cx="188" cy="188.24" r="25.89"/>
        </g>
        <text class="cls-3" transform="translate(173.52 196.02)"><tspan x="0" y="0">род</tspan></text>
      </g>
    </g>
  </g>
</svg>