<?xml version="1.0" encoding="UTF-8"?>
<svg id="Layer_2" data-name="Layer 2" xmlns="http://www.w3.org/2000/svg" viewBox="0 0 500 500">
  <defs>
    <style>
      .cls-1 {
        fill: #fff;
      }

      .cls-2 {
        fill: #ff6900;
      }

      .cls-3 {
        font-family: NirmalaUI-Bold, 'Nirmala UI';
        font-size: 42.46px;
        font-weight: 700;
      }

      .cls-3, .cls-4 {
        fill: #1e2939;
      }

      .cls-5 {
        fill: #fefefe;
      }
    </style>
  </defs>
  <g id="Layer_1-2" data-name="Layer 1">
    <g>
      <rect class="cls-5" width="500" height="500"/>
      <path class="cls-2" d="m75.37,175.59v148.83c0,15.7,8.41,30.19,22.04,37.98l130.89,74.8c13.45,7.69,29.96,7.69,43.41,0l130.89-74.8c13.63-7.79,22.04-22.28,22.04-37.98v-148.83c0-15.7-8.41-30.19-22.04-37.98l-130.89-74.8c-13.45-7.69-29.96-7.69-43.41,0l-130.89,74.8c-13.63,7.79-22.04,22.28-22.04,37.98Z"/>
      <path class="cls-5" d="m106.43,188.82v122.35c0,12.9,6.91,24.82,18.12,31.22l107.6,61.49c11.06,6.32,24.63,6.32,35.69,0l107.6-61.49c11.2-6.4,18.12-18.32,18.12-31.22v-122.35c0-12.9-6.91-24.82-18.12-31.22l-107.6-61.49c-11.06-6.32-24.63-6.32-35.69,0l-107.6,61.49c-11.2,6.4-18.12,18.32-18.12,31.22Z"/>
      <polygon class="cls-4" points="256.36 239.23 250.97 248.56 245.1 238.39 250 235.57 256.36 239.23"/>
      <polygon class="cls-4" points="237.5 253.5 248.12 253.5 243.86 260.88 237.5 257.21 237.5 253.5"/>
      <polygon class="cls-4" points="250.97 248.56 253.82 253.5 248.12 253.5 250.97 248.56"/>
      <polygon class="cls-4" points="262.5 253.5 262.5 257.21 257.6 260.04 253.82 253.5 262.5 253.5"/>
      <g>
        <path class="cls-4" d="m345.7,178.51l-95.7,55.24-95.7-55.24,81.94-46.83c8.52-4.87,18.99-4.87,27.51,0l81.94,46.83Z"/>
        <path class="cls-4" d="m139.33,202.99l96.33,55.61v110.02l-82.37-47.07c-8.64-4.93-13.97-14.12-13.97-24.07v-94.32c0-.06,0-.11,0-.17Z"/>
        <path class="cls-4" d="m360.68,203.16v94.32c0,9.95-5.33,19.14-13.97,24.07l-82.37,47.07v-110.02l96.33-55.61c0,.06,0,.11,0,.17Z"/>
        <circle class="cls-5" cx="250" cy="250.32" r="59.67"/>
        <g>
          <g>
            <circle class="cls-2" cx="250" cy="250.32" r="45.19"/>
            <rect class="cls-2" x="244.26" y="283.03" width="11.48" height="88.94" rx="5.74" ry="5.74"/>
          </g>
          <circle class="cls-1" cx="250" cy="250.32" r="34.43"/>
        </g>
        <text class="cls-3" transform="translate(230.74 260.67)"><tspan x="0" y="0">род</tspan></text>
      </g>
    </g>
  </g>
</svg>